<?xml version="1.0" encoding="UTF-8" standalone="no"?>
<!DOCTYPE svg PUBLIC "-//W3C//DTD SVG 1.1//EN" "http://www.w3.org/Graphics/SVG/1.1/DTD/svg11.dtd">
<svg width="100%" height="100%" viewBox="0 0 1000 1000" version="1.1" xmlns="http://www.w3.org/2000/svg" xmlns:xlink="http://www.w3.org/1999/xlink" xml:space="preserve" xmlns:serif="http://www.serif.com/" style="fill-rule:evenodd;clip-rule:evenodd;stroke-linejoin:round;stroke-miterlimit:2;">
    <g transform="matrix(1,0,0,1,-1137,0)">
        <g id="Artboard1" transform="matrix(1,0,0,1,1137,0)">
            <rect x="0" y="0" width="1000" height="1000" style="fill:none;"/>
            <g transform="matrix(1.63792,0,0,1.63792,-368.534,-318.96)">
                <g transform="matrix(0.802434,0,0,0.802434,286.543,98.783)">
                    <g transform="matrix(0.127637,0,0,0.127637,-113.962,436.182)">
                        <g transform="matrix(1.54826,0,0,0.818347,505.275,-1927.53)">
                            <rect x="622.145" y="1744.42" width="687.855" height="285.583" style="fill:rgb(33,178,120);"/>
                        </g>
                        <g transform="matrix(3.23479,0,0,1.69457,-1124.42,-1939.99)">
                            <rect x="622.145" y="1744.42" width="687.855" height="285.583" style="fill:rgb(11,106,91);"/>
                        </g>
                        <g transform="matrix(2.53017,0,0,1.35552,-442.383,-1985.6)">
                            <rect x="622.145" y="1744.42" width="687.855" height="285.583" style="fill:rgb(3,148,107);"/>
                        </g>
                        <g transform="matrix(1.96986,0,0,1.04383,98.0656,-1933.82)">
                            <rect x="622.145" y="1744.42" width="687.855" height="285.583" style="fill:rgb(33,178,120);"/>
                        </g>
                    </g>
                </g>
                <g transform="matrix(1.7145,0,0,1.7145,-2274.07,-316.118)">
                    <g transform="matrix(100.413,0,0,100.413,1778.4,510)">
                    </g>
                    <text x="1656px" y="510px" style="font-family:'Ingra-Bold', 'Ingra';font-weight:700;font-size:100.413px;">PR</text>
                </g>
            </g>
        </g>
    </g>
</svg>
