<?xml version="1.0" encoding="UTF-8" standalone="no"?>
<!DOCTYPE svg PUBLIC "-//W3C//DTD SVG 1.1//EN" "http://www.w3.org/Graphics/SVG/1.1/DTD/svg11.dtd">
<svg width="100%" height="100%" viewBox="0 0 4150 1000" version="1.1" xmlns="http://www.w3.org/2000/svg" xmlns:xlink="http://www.w3.org/1999/xlink" xml:space="preserve" xmlns:serif="http://www.serif.com/" style="fill-rule:evenodd;clip-rule:evenodd;stroke-linejoin:round;stroke-miterlimit:2;">
    <g id="logo-colour" serif:id="logo colour" transform="matrix(0.560735,0,0,0.337496,0,0)">
        <rect x="0" y="0" width="7401" height="2963" style="fill:none;"/>
        <clipPath id="_clip1">
            <rect x="0" y="0" width="7401" height="2963"/>
        </clipPath>
        <g clip-path="url(#_clip1)">
            <g transform="matrix(3.62946,0,0,6.03019,-7660.07,-4987.01)">
                <g transform="matrix(5.55556,0,0,5.55556,0,0)">
                    <g transform="matrix(92.6286,0,0,92.6286,500.373,223.567)">
                        <path d="M0.467,-0.663L0.467,-0.507C0.4,-0.534 0.341,-0.547 0.291,-0.547C0.24,-0.547 0.214,-0.53 0.214,-0.497C0.214,-0.481 0.221,-0.467 0.235,-0.455C0.249,-0.443 0.267,-0.434 0.288,-0.427C0.309,-0.42 0.332,-0.41 0.357,-0.399C0.382,-0.387 0.405,-0.374 0.426,-0.361C0.447,-0.347 0.465,-0.327 0.479,-0.3C0.493,-0.273 0.5,-0.242 0.5,-0.205C0.5,-0.154 0.487,-0.112 0.462,-0.078C0.436,-0.043 0.404,-0.019 0.365,-0.005C0.326,0.009 0.283,0.016 0.235,0.016C0.166,0.016 0.102,0.003 0.041,-0.024L0.041,-0.184C0.109,-0.149 0.174,-0.131 0.236,-0.131C0.293,-0.131 0.322,-0.15 0.322,-0.189C0.322,-0.21 0.312,-0.227 0.293,-0.241C0.273,-0.254 0.249,-0.266 0.222,-0.276C0.194,-0.286 0.166,-0.298 0.138,-0.312C0.11,-0.325 0.086,-0.347 0.067,-0.376C0.047,-0.405 0.037,-0.441 0.037,-0.484C0.037,-0.521 0.044,-0.554 0.058,-0.582C0.071,-0.61 0.09,-0.632 0.115,-0.648C0.139,-0.664 0.166,-0.676 0.195,-0.683C0.224,-0.69 0.255,-0.694 0.289,-0.694C0.35,-0.694 0.41,-0.684 0.467,-0.663Z" style="fill:rgb(0,149,106);fill-rule:nonzero;"/>
                    </g>
                    <g transform="matrix(92.6286,0,0,92.6286,549.374,223.567)">
                        <path d="M0.376,-0.524L0.376,-0L0.199,-0L0.199,-0.524L0.01,-0.524L0.01,-0.677L0.564,-0.677L0.564,-0.524L0.376,-0.524Z" style="fill:rgb(0,149,106);fill-rule:nonzero;"/>
                    </g>
                    <g transform="matrix(92.6286,0,0,92.6286,598.745,223.567)">
                        <path d="M0.434,-0.677L0.654,-0L0.47,-0L0.435,-0.122L0.217,-0.122L0.183,-0L0.007,-0L0.228,-0.677L0.434,-0.677ZM0.326,-0.508L0.323,-0.508L0.255,-0.271L0.396,-0.271L0.326,-0.508Z" style="fill:rgb(0,149,106);fill-rule:nonzero;"/>
                    </g>
                    <g transform="matrix(92.6286,0,0,92.6286,660.065,223.567)">
                        <rect x="0.062" y="-0.677" width="0.175" height="0.677" style="fill:rgb(0,149,106);fill-rule:nonzero;"/>
                    </g>
                    <g transform="matrix(92.6286,0,0,92.6286,687.853,223.567)">
                        <path d="M0.641,-0L0.441,-0L0.317,-0.234L0.237,-0.234L0.237,-0L0.062,-0L0.062,-0.677L0.32,-0.677C0.411,-0.677 0.478,-0.66 0.521,-0.626C0.563,-0.592 0.584,-0.541 0.584,-0.473C0.584,-0.439 0.575,-0.407 0.556,-0.376C0.537,-0.345 0.51,-0.319 0.477,-0.297L0.641,-0ZM0.316,-0.381C0.377,-0.381 0.407,-0.407 0.407,-0.458C0.407,-0.483 0.4,-0.5 0.385,-0.511C0.37,-0.521 0.348,-0.526 0.319,-0.526L0.237,-0.526L0.237,-0.381L0.316,-0.381Z" style="fill:rgb(0,149,106);fill-rule:nonzero;"/>
                    </g>
                </g>
                <g transform="matrix(0.198125,0,0,-0.198125,1888.66,1568)">
                    <g transform="matrix(1.91988,0,0,-1.01477,645.155,5510.17)">
                        <rect x="622.145" y="1744.42" width="687.855" height="285.583" style="fill:rgb(33,178,120);"/>
                    </g>
                    <g transform="matrix(4.01122,0,0,-2.10131,-1375.7,5525.62)">
                        <rect x="622.145" y="1744.42" width="687.855" height="285.583" style="fill:rgb(11,106,91);"/>
                    </g>
                    <g transform="matrix(3.13747,0,0,-1.68088,-529.963,5582.17)">
                        <rect x="622.145" y="1744.42" width="687.855" height="285.583" style="fill:rgb(3,148,107);"/>
                    </g>
                    <g transform="matrix(2.44267,0,0,-1.29437,140.206,5517.97)">
                        <rect x="622.145" y="1744.42" width="687.855" height="285.583" style="fill:rgb(33,178,120);"/>
                    </g>
                </g>
            </g>
        </g>
    </g>
</svg>
